<?xml version="1.0" encoding="utf-8"?>
<!-- Generator: Adobe Illustrator 27.5.0, SVG Export Plug-In . SVG Version: 6.00 Build 0)  -->
<svg version="1.1" xmlns="http://www.w3.org/2000/svg" xmlns:xlink="http://www.w3.org/1999/xlink" x="0px" y="0px"
	 viewBox="0 0 500 500" style="enable-background:new 0 0 500 500;" xml:space="preserve">
<g id="BACKGROUND">
	<!-- <rect style="fill:#FFFFFF;" width="500" height="500"/> -->
</g>
<g id="OBJECTS">
	<g>
		<g>
			<g>
				<defs>
					<rect id="SVGID_1_" x="33.957" y="62.564" width="424.376" height="320.554"/>
				</defs>
				<clipPath id="SVGID_00000057133060224134879300000016523870355341408702_">
					<use xlink:href="#SVGID_1_"  style="overflow:visible;"/>
				</clipPath>
				<g style="clip-path:url(#SVGID_00000057133060224134879300000016523870355341408702_);">
					<g>
						
							<ellipse transform="matrix(0.7071 -0.7071 0.7071 0.7071 -107.0166 251.4345)" style="fill:#F8E4CF;" cx="250" cy="254.898" rx="187.77" ry="187.77"/>
						<g>
							
								<ellipse style="fill:none;stroke:#DEC5AB;stroke-width:0.5;stroke-miterlimit:10;" cx="250" cy="254.898" rx="143.501" ry="187.77"/>
							
								<ellipse style="fill:none;stroke:#DEC5AB;stroke-width:0.5;stroke-miterlimit:10;" cx="250" cy="254.898" rx="45.305" ry="187.77"/>
							
								<ellipse style="fill:none;stroke:#DEC5AB;stroke-width:0.5;stroke-miterlimit:10;" cx="250" cy="254.898" rx="187.77" ry="143.502"/>
							
								<ellipse style="fill:none;stroke:#DEC5AB;stroke-width:0.5;stroke-miterlimit:10;" cx="250" cy="254.898" rx="187.77" ry="45.305"/>
						</g>
					</g>
					<g>
						<g>
							<path style="fill:#DEC5AB;" d="M215.465,138.301c0,5.354-9.694,16.949-9.694,16.949s-9.694-11.595-9.694-16.949
								s4.34-9.694,9.694-9.694C211.125,128.607,215.465,132.947,215.465,138.301z"/>
							<path style="fill:#F8E4CF;" d="M210.08,138.301c0,2.379-1.929,4.308-4.308,4.308c-2.379,0-4.308-1.929-4.308-4.308
								c0-2.379,1.929-4.308,4.308-4.308C208.151,133.993,210.08,135.922,210.08,138.301z"/>
						</g>
						<g>
							<path style="fill:#DEC5AB;" d="M252.443,246.749c0,5.354-9.694,16.949-9.694,16.949s-9.694-11.595-9.694-16.949
								c0-5.354,4.34-9.694,9.694-9.694C248.103,237.056,252.443,241.396,252.443,246.749z"/>
							<path style="fill:#F8E4CF;" d="M247.058,246.749c0,2.38-1.929,4.308-4.308,4.308c-2.379,0-4.308-1.929-4.308-4.308
								c0-2.379,1.929-4.308,4.308-4.308C245.129,242.441,247.058,244.37,247.058,246.749z"/>
						</g>
						<g>
							<g>
								
									<line style="fill:none;stroke:#D35422;stroke-width:2;stroke-miterlimit:10;" x1="205.772" y1="155.25" x2="199.772" y2="155.25"/>
								
									<line style="fill:none;stroke:#D35422;stroke-width:2;stroke-miterlimit:10;stroke-dasharray:6.1248,6.1248;" x1="193.647" y1="155.25" x2="184.46" y2="155.25"/>
								<polyline style="fill:none;stroke:#D35422;stroke-width:2;stroke-miterlimit:10;" points="181.397,155.25 175.397,155.25 
									175.397,161.25 								"/>
								
									<line style="fill:none;stroke:#D35422;stroke-width:2;stroke-miterlimit:10;stroke-dasharray:14.611,14.611;" x1="175.397" y1="175.861" x2="175.397" y2="197.777"/>
								<polyline style="fill:none;stroke:#D35422;stroke-width:2;stroke-miterlimit:10;" points="175.397,205.083 175.397,211.083 
									181.397,211.083 								"/>
								
									<line style="fill:none;stroke:#D35422;stroke-width:2;stroke-miterlimit:10;stroke-dasharray:8.877,8.877;" x1="190.274" y1="211.083" x2="203.59" y2="211.083"/>
								<polyline style="fill:none;stroke:#D35422;stroke-width:2;stroke-miterlimit:10;" points="208.028,211.083 214.028,211.083 
									214.028,217.083 								"/>
								
									<line style="fill:none;stroke:#D35422;stroke-width:2;stroke-miterlimit:10;stroke-dasharray:14.0378,14.0378;" x1="214.028" y1="231.121" x2="214.028" y2="252.178"/>
								<polyline style="fill:none;stroke:#D35422;stroke-width:2;stroke-miterlimit:10;" points="214.028,259.196 214.028,265.196 
									220.028,265.196 								"/>
								
									<line style="fill:none;stroke:#D35422;stroke-width:2;stroke-miterlimit:10;" x1="236.749" y1="265.196" x2="242.749" y2="265.196"/>
							</g>
						</g>
					</g>
				</g>
			</g>
			<g>
				<g>
					<rect x="357.061" y="333.85" style="fill:#3B7977;" width="79.671" height="49.268"/>
					<rect x="357.061" y="339.392" style="fill:#184347;" width="79.671" height="38.183"/>
					<g>
						
							<line style="fill:none;stroke:#3B7977;stroke-width:2;stroke-miterlimit:10;" x1="360.525" y1="339.392" x2="360.525" y2="377.576"/>
						
							<line style="fill:none;stroke:#3B7977;stroke-width:2;stroke-miterlimit:10;" x1="365.374" y1="339.392" x2="365.374" y2="377.576"/>
						
							<line style="fill:none;stroke:#3B7977;stroke-width:2;stroke-miterlimit:10;" x1="370.224" y1="339.392" x2="370.224" y2="377.576"/>
						
							<line style="fill:none;stroke:#3B7977;stroke-width:2;stroke-miterlimit:10;" x1="375.073" y1="339.392" x2="375.073" y2="377.576"/>
						
							<line style="fill:none;stroke:#3B7977;stroke-width:2;stroke-miterlimit:10;" x1="379.923" y1="339.392" x2="379.923" y2="377.576"/>
						
							<line style="fill:none;stroke:#3B7977;stroke-width:2;stroke-miterlimit:10;" x1="384.772" y1="339.392" x2="384.772" y2="377.576"/>
						
							<line style="fill:none;stroke:#3B7977;stroke-width:2;stroke-miterlimit:10;" x1="389.622" y1="339.392" x2="389.622" y2="377.576"/>
						
							<line style="fill:none;stroke:#3B7977;stroke-width:2;stroke-miterlimit:10;" x1="394.472" y1="339.392" x2="394.472" y2="377.576"/>
						
							<line style="fill:none;stroke:#3B7977;stroke-width:2;stroke-miterlimit:10;" x1="399.321" y1="339.392" x2="399.321" y2="377.576"/>
						
							<line style="fill:none;stroke:#3B7977;stroke-width:2;stroke-miterlimit:10;" x1="404.171" y1="339.392" x2="404.171" y2="377.576"/>
						
							<line style="fill:none;stroke:#3B7977;stroke-width:2;stroke-miterlimit:10;" x1="409.02" y1="339.392" x2="409.02" y2="377.576"/>
						
							<line style="fill:none;stroke:#3B7977;stroke-width:2;stroke-miterlimit:10;" x1="413.87" y1="339.392" x2="413.87" y2="377.576"/>
						
							<line style="fill:none;stroke:#3B7977;stroke-width:2;stroke-miterlimit:10;" x1="418.719" y1="339.392" x2="418.719" y2="377.576"/>
						
							<line style="fill:none;stroke:#3B7977;stroke-width:2;stroke-miterlimit:10;" x1="423.569" y1="339.392" x2="423.569" y2="377.576"/>
						
							<line style="fill:none;stroke:#3B7977;stroke-width:2;stroke-miterlimit:10;" x1="428.418" y1="339.392" x2="428.418" y2="377.576"/>
						
							<line style="fill:none;stroke:#3B7977;stroke-width:2;stroke-miterlimit:10;" x1="433.268" y1="339.392" x2="433.268" y2="377.576"/>
					</g>
				</g>
				<g>
					<rect x="292.781" y="284.582" style="fill:#3B7977;" width="79.672" height="49.268"/>
					<rect x="292.781" y="290.124" style="fill:#184347;" width="79.672" height="38.183"/>
					<g>
						
							<line style="fill:none;stroke:#3B7977;stroke-width:2;stroke-miterlimit:10;" x1="296.245" y1="290.124" x2="296.245" y2="328.308"/>
						
							<line style="fill:none;stroke:#3B7977;stroke-width:2;stroke-miterlimit:10;" x1="301.095" y1="290.124" x2="301.095" y2="328.308"/>
						
							<line style="fill:none;stroke:#3B7977;stroke-width:2;stroke-miterlimit:10;" x1="305.944" y1="290.124" x2="305.944" y2="328.308"/>
						
							<line style="fill:none;stroke:#3B7977;stroke-width:2;stroke-miterlimit:10;" x1="310.794" y1="290.124" x2="310.794" y2="328.308"/>
						
							<line style="fill:none;stroke:#3B7977;stroke-width:2;stroke-miterlimit:10;" x1="315.643" y1="290.124" x2="315.643" y2="328.308"/>
						
							<line style="fill:none;stroke:#3B7977;stroke-width:2;stroke-miterlimit:10;" x1="320.493" y1="290.124" x2="320.493" y2="328.308"/>
						
							<line style="fill:none;stroke:#3B7977;stroke-width:2;stroke-miterlimit:10;" x1="325.343" y1="290.124" x2="325.343" y2="328.308"/>
						
							<line style="fill:none;stroke:#3B7977;stroke-width:2;stroke-miterlimit:10;" x1="330.192" y1="290.124" x2="330.192" y2="328.308"/>
						
							<line style="fill:none;stroke:#3B7977;stroke-width:2;stroke-miterlimit:10;" x1="335.042" y1="290.124" x2="335.042" y2="328.308"/>
						
							<line style="fill:none;stroke:#3B7977;stroke-width:2;stroke-miterlimit:10;" x1="339.891" y1="290.124" x2="339.891" y2="328.308"/>
						
							<line style="fill:none;stroke:#3B7977;stroke-width:2;stroke-miterlimit:10;" x1="344.741" y1="290.124" x2="344.741" y2="328.308"/>
						
							<line style="fill:none;stroke:#3B7977;stroke-width:2;stroke-miterlimit:10;" x1="349.59" y1="290.124" x2="349.59" y2="328.308"/>
						
							<line style="fill:none;stroke:#3B7977;stroke-width:2;stroke-miterlimit:10;" x1="354.44" y1="290.124" x2="354.44" y2="328.308"/>
						
							<line style="fill:none;stroke:#3B7977;stroke-width:2;stroke-miterlimit:10;" x1="359.289" y1="290.124" x2="359.289" y2="328.308"/>
						
							<line style="fill:none;stroke:#3B7977;stroke-width:2;stroke-miterlimit:10;" x1="364.139" y1="290.124" x2="364.139" y2="328.308"/>
						
							<line style="fill:none;stroke:#3B7977;stroke-width:2;stroke-miterlimit:10;" x1="368.989" y1="290.124" x2="368.989" y2="328.308"/>
					</g>
				</g>
				<g>
					<rect x="372.62" y="284.582" style="fill:#FFAC48;" width="79.671" height="49.268"/>
					<rect x="372.62" y="290.124" style="fill:#EA9633;" width="79.671" height="38.183"/>
					<g>
						
							<line style="fill:none;stroke:#FFAC48;stroke-width:2;stroke-miterlimit:10;" x1="376.084" y1="290.124" x2="376.084" y2="328.308"/>
						
							<line style="fill:none;stroke:#FFAC48;stroke-width:2;stroke-miterlimit:10;" x1="380.934" y1="290.124" x2="380.934" y2="328.308"/>
						
							<line style="fill:none;stroke:#FFAC48;stroke-width:2;stroke-miterlimit:10;" x1="385.783" y1="290.124" x2="385.783" y2="328.308"/>
						
							<line style="fill:none;stroke:#FFAC48;stroke-width:2;stroke-miterlimit:10;" x1="390.633" y1="290.124" x2="390.633" y2="328.308"/>
						
							<line style="fill:none;stroke:#FFAC48;stroke-width:2;stroke-miterlimit:10;" x1="395.482" y1="290.124" x2="395.482" y2="328.308"/>
						
							<line style="fill:none;stroke:#FFAC48;stroke-width:2;stroke-miterlimit:10;" x1="400.332" y1="290.124" x2="400.332" y2="328.308"/>
						
							<line style="fill:none;stroke:#FFAC48;stroke-width:2;stroke-miterlimit:10;" x1="405.182" y1="290.124" x2="405.182" y2="328.308"/>
						
							<line style="fill:none;stroke:#FFAC48;stroke-width:2;stroke-miterlimit:10;" x1="410.031" y1="290.124" x2="410.031" y2="328.308"/>
						
							<line style="fill:none;stroke:#FFAC48;stroke-width:2;stroke-miterlimit:10;" x1="414.881" y1="290.124" x2="414.881" y2="328.308"/>
						
							<line style="fill:none;stroke:#FFAC48;stroke-width:2;stroke-miterlimit:10;" x1="419.73" y1="290.124" x2="419.73" y2="328.308"/>
						
							<line style="fill:none;stroke:#FFAC48;stroke-width:2;stroke-miterlimit:10;" x1="424.58" y1="290.124" x2="424.58" y2="328.308"/>
						
							<line style="fill:none;stroke:#FFAC48;stroke-width:2;stroke-miterlimit:10;" x1="429.43" y1="290.124" x2="429.43" y2="328.308"/>
						
							<line style="fill:none;stroke:#FFAC48;stroke-width:2;stroke-miterlimit:10;" x1="434.279" y1="290.124" x2="434.279" y2="328.308"/>
						
							<line style="fill:none;stroke:#FFAC48;stroke-width:2;stroke-miterlimit:10;" x1="439.129" y1="290.124" x2="439.129" y2="328.308"/>
						
							<line style="fill:none;stroke:#FFAC48;stroke-width:2;stroke-miterlimit:10;" x1="443.978" y1="290.124" x2="443.978" y2="328.308"/>
						
							<line style="fill:none;stroke:#FFAC48;stroke-width:2;stroke-miterlimit:10;" x1="448.828" y1="290.124" x2="448.828" y2="328.308"/>
					</g>
				</g>
				<g>
					<rect x="363.896" y="235.314" style="fill:#D35422;" width="79.671" height="49.268"/>
					<rect x="363.896" y="240.856" style="fill:#BD3E00;" width="79.671" height="38.183"/>
					<g>
						
							<line style="fill:none;stroke:#D35422;stroke-width:2;stroke-miterlimit:10;" x1="367.361" y1="240.856" x2="367.361" y2="279.039"/>
						
							<line style="fill:none;stroke:#D35422;stroke-width:2;stroke-miterlimit:10;" x1="372.21" y1="240.856" x2="372.21" y2="279.039"/>
						
							<line style="fill:none;stroke:#D35422;stroke-width:2;stroke-miterlimit:10;" x1="377.06" y1="240.856" x2="377.06" y2="279.039"/>
						
							<line style="fill:none;stroke:#D35422;stroke-width:2;stroke-miterlimit:10;" x1="381.909" y1="240.856" x2="381.909" y2="279.039"/>
						
							<line style="fill:none;stroke:#D35422;stroke-width:2;stroke-miterlimit:10;" x1="386.759" y1="240.856" x2="386.759" y2="279.039"/>
						
							<line style="fill:none;stroke:#D35422;stroke-width:2;stroke-miterlimit:10;" x1="391.608" y1="240.856" x2="391.608" y2="279.039"/>
						
							<line style="fill:none;stroke:#D35422;stroke-width:2;stroke-miterlimit:10;" x1="396.458" y1="240.856" x2="396.458" y2="279.039"/>
						
							<line style="fill:none;stroke:#D35422;stroke-width:2;stroke-miterlimit:10;" x1="401.307" y1="240.856" x2="401.307" y2="279.039"/>
						
							<line style="fill:none;stroke:#D35422;stroke-width:2;stroke-miterlimit:10;" x1="406.157" y1="240.856" x2="406.157" y2="279.039"/>
						
							<line style="fill:none;stroke:#D35422;stroke-width:2;stroke-miterlimit:10;" x1="411.007" y1="240.856" x2="411.007" y2="279.039"/>
						
							<line style="fill:none;stroke:#D35422;stroke-width:2;stroke-miterlimit:10;" x1="415.856" y1="240.856" x2="415.856" y2="279.039"/>
						
							<line style="fill:none;stroke:#D35422;stroke-width:2;stroke-miterlimit:10;" x1="420.706" y1="240.856" x2="420.706" y2="279.039"/>
						
							<line style="fill:none;stroke:#D35422;stroke-width:2;stroke-miterlimit:10;" x1="425.555" y1="240.856" x2="425.555" y2="279.039"/>
						
							<line style="fill:none;stroke:#D35422;stroke-width:2;stroke-miterlimit:10;" x1="430.405" y1="240.856" x2="430.405" y2="279.039"/>
						
							<line style="fill:none;stroke:#D35422;stroke-width:2;stroke-miterlimit:10;" x1="435.254" y1="240.856" x2="435.254" y2="279.039"/>
						
							<line style="fill:none;stroke:#D35422;stroke-width:2;stroke-miterlimit:10;" x1="440.104" y1="240.856" x2="440.104" y2="279.039"/>
					</g>
				</g>
				<g>
					<rect x="277.414" y="333.85" style="fill:#D35422;" width="79.671" height="49.268"/>
					<rect x="277.414" y="339.392" style="fill:#BD3E00;" width="79.671" height="38.183"/>
					<g>
						
							<line style="fill:none;stroke:#D35422;stroke-width:2;stroke-miterlimit:10;" x1="280.878" y1="339.392" x2="280.878" y2="377.576"/>
						
							<line style="fill:none;stroke:#D35422;stroke-width:2;stroke-miterlimit:10;" x1="285.728" y1="339.392" x2="285.728" y2="377.576"/>
						
							<line style="fill:none;stroke:#D35422;stroke-width:2;stroke-miterlimit:10;" x1="290.577" y1="339.392" x2="290.577" y2="377.576"/>
						
							<line style="fill:none;stroke:#D35422;stroke-width:2;stroke-miterlimit:10;" x1="295.427" y1="339.392" x2="295.427" y2="377.576"/>
						
							<line style="fill:none;stroke:#D35422;stroke-width:2;stroke-miterlimit:10;" x1="300.276" y1="339.392" x2="300.276" y2="377.576"/>
						
							<line style="fill:none;stroke:#D35422;stroke-width:2;stroke-miterlimit:10;" x1="305.126" y1="339.392" x2="305.126" y2="377.576"/>
						
							<line style="fill:none;stroke:#D35422;stroke-width:2;stroke-miterlimit:10;" x1="309.976" y1="339.392" x2="309.976" y2="377.576"/>
						
							<line style="fill:none;stroke:#D35422;stroke-width:2;stroke-miterlimit:10;" x1="314.825" y1="339.392" x2="314.825" y2="377.576"/>
						
							<line style="fill:none;stroke:#D35422;stroke-width:2;stroke-miterlimit:10;" x1="319.675" y1="339.392" x2="319.675" y2="377.576"/>
						
							<line style="fill:none;stroke:#D35422;stroke-width:2;stroke-miterlimit:10;" x1="324.524" y1="339.392" x2="324.524" y2="377.576"/>
						
							<line style="fill:none;stroke:#D35422;stroke-width:2;stroke-miterlimit:10;" x1="329.374" y1="339.392" x2="329.374" y2="377.576"/>
						
							<line style="fill:none;stroke:#D35422;stroke-width:2;stroke-miterlimit:10;" x1="334.223" y1="339.392" x2="334.223" y2="377.576"/>
						
							<line style="fill:none;stroke:#D35422;stroke-width:2;stroke-miterlimit:10;" x1="339.073" y1="339.392" x2="339.073" y2="377.576"/>
						
							<line style="fill:none;stroke:#D35422;stroke-width:2;stroke-miterlimit:10;" x1="343.923" y1="339.392" x2="343.923" y2="377.576"/>
						
							<line style="fill:none;stroke:#D35422;stroke-width:2;stroke-miterlimit:10;" x1="348.772" y1="339.392" x2="348.772" y2="377.576"/>
						
							<line style="fill:none;stroke:#D35422;stroke-width:2;stroke-miterlimit:10;" x1="353.622" y1="339.392" x2="353.622" y2="377.576"/>
					</g>
				</g>
			</g>
			
				<line style="fill:none;stroke:#374A3A;stroke-width:3;stroke-linejoin:round;stroke-miterlimit:10;" x1="30" y1="383.118" x2="470" y2="383.118"/>
			<g>
				<g>
					<g>
						
							<rect x="99.051" y="57.694" style="fill:none;stroke:#374A3A;stroke-width:3;stroke-linejoin:round;stroke-miterlimit:10;" width="54.237" height="54.237"/>
						
							<line style="fill:none;stroke:#374A3A;stroke-width:3;stroke-linejoin:round;stroke-miterlimit:10;" x1="99.051" y1="111.932" x2="153.288" y2="57.694"/>
						
							<line style="fill:none;stroke:#374A3A;stroke-width:3;stroke-linejoin:round;stroke-miterlimit:10;" x1="99.051" y1="57.694" x2="153.288" y2="111.932"/>
					</g>
					<g>
						
							<rect x="44.814" y="57.694" style="fill:none;stroke:#374A3A;stroke-width:3;stroke-linejoin:round;stroke-miterlimit:10;" width="54.237" height="54.237"/>
						
							<line style="fill:none;stroke:#374A3A;stroke-width:3;stroke-linejoin:round;stroke-miterlimit:10;" x1="44.814" y1="111.932" x2="99.051" y2="57.694"/>
						
							<line style="fill:none;stroke:#374A3A;stroke-width:3;stroke-linejoin:round;stroke-miterlimit:10;" x1="44.814" y1="57.694" x2="99.051" y2="111.932"/>
					</g>
					<g>
						
							<rect x="99.051" y="111.932" style="fill:none;stroke:#374A3A;stroke-width:3;stroke-linejoin:round;stroke-miterlimit:10;" width="54.237" height="54.237"/>
						
							<line style="fill:none;stroke:#374A3A;stroke-width:3;stroke-linejoin:round;stroke-miterlimit:10;" x1="99.051" y1="166.169" x2="153.288" y2="111.932"/>
						
							<line style="fill:none;stroke:#374A3A;stroke-width:3;stroke-linejoin:round;stroke-miterlimit:10;" x1="99.051" y1="111.932" x2="153.288" y2="166.169"/>
					</g>
					<g>
						
							<rect x="99.051" y="166.169" style="fill:none;stroke:#374A3A;stroke-width:3;stroke-linejoin:round;stroke-miterlimit:10;" width="54.237" height="54.237"/>
						
							<line style="fill:none;stroke:#374A3A;stroke-width:3;stroke-linejoin:round;stroke-miterlimit:10;" x1="99.051" y1="220.406" x2="153.288" y2="166.169"/>
						
							<line style="fill:none;stroke:#374A3A;stroke-width:3;stroke-linejoin:round;stroke-miterlimit:10;" x1="99.051" y1="166.169" x2="153.288" y2="220.406"/>
					</g>
					<g>
						
							<rect x="99.051" y="220.406" style="fill:none;stroke:#374A3A;stroke-width:3;stroke-linejoin:round;stroke-miterlimit:10;" width="54.237" height="54.237"/>
						
							<line style="fill:none;stroke:#374A3A;stroke-width:3;stroke-linejoin:round;stroke-miterlimit:10;" x1="99.051" y1="274.643" x2="153.288" y2="220.406"/>
						
							<line style="fill:none;stroke:#374A3A;stroke-width:3;stroke-linejoin:round;stroke-miterlimit:10;" x1="99.051" y1="220.406" x2="153.288" y2="274.643"/>
					</g>
					<g>
						
							<rect x="99.051" y="274.643" style="fill:none;stroke:#374A3A;stroke-width:3;stroke-linejoin:round;stroke-miterlimit:10;" width="54.237" height="54.237"/>
						
							<line style="fill:none;stroke:#374A3A;stroke-width:3;stroke-linejoin:round;stroke-miterlimit:10;" x1="99.051" y1="328.881" x2="153.288" y2="274.643"/>
						
							<line style="fill:none;stroke:#374A3A;stroke-width:3;stroke-linejoin:round;stroke-miterlimit:10;" x1="99.051" y1="274.643" x2="153.288" y2="328.881"/>
					</g>
					<g>
						
							<rect x="99.051" y="328.881" style="fill:none;stroke:#374A3A;stroke-width:3;stroke-linejoin:round;stroke-miterlimit:10;" width="54.237" height="54.237"/>
						
							<line style="fill:none;stroke:#374A3A;stroke-width:3;stroke-linejoin:round;stroke-miterlimit:10;" x1="99.051" y1="383.118" x2="153.288" y2="328.881"/>
						
							<line style="fill:none;stroke:#374A3A;stroke-width:3;stroke-linejoin:round;stroke-miterlimit:10;" x1="99.051" y1="328.881" x2="153.288" y2="383.118"/>
					</g>
					<polyline style="fill:none;stroke:#374A3A;stroke-width:3;stroke-linejoin:round;stroke-miterlimit:10;" points="
						153.288,57.694 344.249,57.694 153.288,111.932 					"/>
					<polyline style="fill:none;stroke:#374A3A;stroke-width:3;stroke-linejoin:round;stroke-miterlimit:10;" points="
						324.475,57.694 298.861,70.586 269.107,57.694 239.661,87.4 199.051,57.694 153.288,111.932 					"/>
					<polygon style="fill:none;stroke:#374A3A;stroke-width:3;stroke-linejoin:round;stroke-miterlimit:10;" points="99.051,57.694 
						126.169,26.621 153.288,57.694 					"/>
				</g>
				<g>
					<g>
						<path style="fill:none;stroke:#374A3A;stroke-width:2;stroke-linejoin:round;stroke-miterlimit:10;" d="M337.915,103.231
							c0,3.498,2.836,6.333,6.333,6.333s6.333-2.836,6.333-6.333c0-3.498-2.835-6.333-6.333-6.333V57.694"/>
						<path style="fill:#374A3A;" d="M348,94.316c0,2.072-1.68,3.751-3.751,3.751c-2.072,0-3.751-1.68-3.751-3.751
							c0-2.072,1.68-3.751,3.751-3.751C346.32,90.564,348,92.244,348,94.316z"/>
					</g>
					<g>
						<g>
							<g>
								
									<rect x="282.33" y="156.69" transform="matrix(0.0017 -1 1 0.0017 110.5412 500.5916)" style="fill:#FFAC48;" width="47.299" height="76.488"/>
								
									<rect x="287.651" y="156.69" transform="matrix(0.0017 -1 1 0.0017 110.5412 500.5916)" style="fill:#EA9633;" width="36.657" height="76.488"/>
								<g>
									
										<line style="fill:none;stroke:#FFAC48;stroke-width:2;stroke-miterlimit:10;" x1="271.092" y1="176.548" x2="271.032" y2="213.205"/>
									
										<line style="fill:none;stroke:#FFAC48;stroke-width:2;stroke-miterlimit:10;" x1="275.748" y1="176.555" x2="275.687" y2="213.212"/>
									
										<line style="fill:none;stroke:#FFAC48;stroke-width:2;stroke-miterlimit:10;" x1="280.404" y1="176.563" x2="280.343" y2="213.22"/>
									
										<line style="fill:none;stroke:#FFAC48;stroke-width:2;stroke-miterlimit:10;" x1="285.059" y1="176.571" x2="284.999" y2="213.228"/>
									
										<line style="fill:none;stroke:#FFAC48;stroke-width:2;stroke-miterlimit:10;" x1="289.715" y1="176.578" x2="289.655" y2="213.236"/>
									
										<line style="fill:none;stroke:#FFAC48;stroke-width:2;stroke-miterlimit:10;" x1="294.371" y1="176.586" x2="294.31" y2="213.243"/>
									
										<line style="fill:none;stroke:#FFAC48;stroke-width:2;stroke-miterlimit:10;" x1="299.027" y1="176.594" x2="298.966" y2="213.251"/>
									
										<line style="fill:none;stroke:#FFAC48;stroke-width:2;stroke-miterlimit:10;" x1="303.682" y1="176.601" x2="303.622" y2="213.259"/>
									
										<line style="fill:none;stroke:#FFAC48;stroke-width:2;stroke-miterlimit:10;" x1="308.338" y1="176.609" x2="308.278" y2="213.266"/>
									
										<line style="fill:none;stroke:#FFAC48;stroke-width:2;stroke-miterlimit:10;" x1="312.994" y1="176.617" x2="312.933" y2="213.274"/>
									
										<line style="fill:none;stroke:#FFAC48;stroke-width:2;stroke-miterlimit:10;" x1="317.65" y1="176.624" x2="317.589" y2="213.282"/>
									
										<line style="fill:none;stroke:#FFAC48;stroke-width:2;stroke-miterlimit:10;" x1="322.305" y1="176.632" x2="322.245" y2="213.289"/>
									
										<line style="fill:none;stroke:#FFAC48;stroke-width:2;stroke-miterlimit:10;" x1="326.961" y1="176.64" x2="326.901" y2="213.297"/>
									
										<line style="fill:none;stroke:#FFAC48;stroke-width:2;stroke-miterlimit:10;" x1="331.617" y1="176.648" x2="331.556" y2="213.305"/>
									
										<line style="fill:none;stroke:#FFAC48;stroke-width:2;stroke-miterlimit:10;" x1="336.273" y1="176.655" x2="336.212" y2="213.313"/>
									
										<line style="fill:none;stroke:#FFAC48;stroke-width:2;stroke-miterlimit:10;" x1="340.928" y1="176.663" x2="340.868" y2="213.32"/>
								</g>
							</g>
							
								<text transform="matrix(1 0.0017 -0.0017 1 273.1604 200.0968)" style="fill:#F8E4CF; font-family:'Poppins-Black'; font-size:16.4814px;">IMPORT</text>
						</g>
						<g>
							<g>
								
									<rect x="358.818" y="156.816" transform="matrix(0.0017 -1 1 0.0017 186.776 577.205)" style="fill:#D35422;" width="47.299" height="76.488"/>
								
									<rect x="364.139" y="156.816" transform="matrix(0.0017 -1 1 0.0017 186.776 577.205)" style="fill:#BD3E00;" width="36.657" height="76.487"/>
								<g>
									
										<line style="fill:none;stroke:#D35422;stroke-width:2;stroke-miterlimit:10;" x1="347.579" y1="176.674" x2="347.519" y2="213.331"/>
									
										<line style="fill:none;stroke:#D35422;stroke-width:2;stroke-miterlimit:10;" x1="352.235" y1="176.682" x2="352.175" y2="213.339"/>
									
										<line style="fill:none;stroke:#D35422;stroke-width:2;stroke-miterlimit:10;" x1="356.891" y1="176.689" x2="356.831" y2="213.347"/>
									
										<line style="fill:none;stroke:#D35422;stroke-width:2;stroke-miterlimit:10;" x1="361.547" y1="176.697" x2="361.486" y2="213.354"/>
									
										<line style="fill:none;stroke:#D35422;stroke-width:2;stroke-miterlimit:10;" x1="366.203" y1="176.705" x2="366.142" y2="213.362"/>
									
										<line style="fill:none;stroke:#D35422;stroke-width:2;stroke-miterlimit:10;" x1="370.858" y1="176.712" x2="370.798" y2="213.37"/>
									
										<line style="fill:none;stroke:#D35422;stroke-width:2;stroke-miterlimit:10;" x1="375.514" y1="176.72" x2="375.453" y2="213.377"/>
									
										<line style="fill:none;stroke:#D35422;stroke-width:2;stroke-miterlimit:10;" x1="380.17" y1="176.728" x2="380.109" y2="213.385"/>
									
										<line style="fill:none;stroke:#D35422;stroke-width:2;stroke-miterlimit:10;" x1="384.826" y1="176.735" x2="384.765" y2="213.393"/>
									
										<line style="fill:none;stroke:#D35422;stroke-width:2;stroke-miterlimit:10;" x1="389.481" y1="176.743" x2="389.421" y2="213.4"/>
									
										<line style="fill:none;stroke:#D35422;stroke-width:2;stroke-miterlimit:10;" x1="394.137" y1="176.751" x2="394.077" y2="213.408"/>
									
										<line style="fill:none;stroke:#D35422;stroke-width:2;stroke-miterlimit:10;" x1="398.793" y1="176.758" x2="398.732" y2="213.416"/>
									
										<line style="fill:none;stroke:#D35422;stroke-width:2;stroke-miterlimit:10;" x1="403.449" y1="176.766" x2="403.388" y2="213.423"/>
									
										<line style="fill:none;stroke:#D35422;stroke-width:2;stroke-miterlimit:10;" x1="408.104" y1="176.774" x2="408.044" y2="213.431"/>
									
										<line style="fill:none;stroke:#D35422;stroke-width:2;stroke-miterlimit:10;" x1="412.76" y1="176.781" x2="412.7" y2="213.439"/>
									
										<line style="fill:none;stroke:#D35422;stroke-width:2;stroke-miterlimit:10;" x1="417.416" y1="176.789" x2="417.355" y2="213.447"/>
								</g>
							</g>
							
								<text transform="matrix(1 0.0017 -0.0017 1 349.6469 200.223)" style="fill:#F8E4CF; font-family:'Poppins-Black'; font-size:16.4814px;">IMPORT</text>
						</g>
						<g>
							<g>
								
									<rect x="304.899" y="125.72" transform="matrix(0.0017 -1 1 0.0017 172.2611 475.963)" style="fill:#EA9633;" width="39.213" height="51.978"/>
								
									<rect x="323.088" y="143.938" transform="matrix(0.0017 -1 1 0.0017 190.389 494.1812)" style="fill:#CA791E;" width="39.213" height="15.601"/>
								
									<rect x="312.008" y="132.562" transform="matrix(0.0017 -1 1 0.0017 179.3948 452.8505)" style="fill:#374A3A;" width="8.981" height="8.034"/>
								
									<rect x="338.229" y="134.27" transform="matrix(0.0017 -1 1 0.0017 205.5286 479.1147)" style="fill:#374A3A;" width="8.981" height="4.705"/>
								<g>
									<polygon style="fill:#374A3A;" points="321.776,164.708 319.205,161.759 316.624,164.7 317.945,164.702 317.94,167.528 
										320.451,167.532 320.455,164.706 									"/>
									<polygon style="fill:#374A3A;" points="316.279,164.699 313.707,161.75 311.126,164.691 312.447,164.693 312.443,167.519 
										314.953,167.523 314.958,164.697 									"/>
								</g>
							</g>
							<g>
								
									<rect x="356.791" y="125.805" transform="matrix(0.0017 -1 1 0.0017 223.9814 527.9402)" style="fill:#EA9633;" width="39.213" height="51.978"/>
								
									<rect x="374.98" y="144.024" transform="matrix(0.0017 -1 1 0.0017 242.1093 546.1585)" style="fill:#CA791E;" width="39.213" height="15.601"/>
								
									<rect x="363.899" y="132.648" transform="matrix(0.0017 -1 1 0.0017 231.115 504.8278)" style="fill:#374A3A;" width="8.981" height="8.034"/>
								
									<rect x="390.121" y="134.356" transform="matrix(0.0017 -1 1 0.0017 257.2486 531.092)" style="fill:#374A3A;" width="8.981" height="4.705"/>
								<g>
									<polygon style="fill:#374A3A;" points="373.668,164.794 371.097,161.845 368.516,164.786 369.837,164.788 369.832,167.614 
										372.342,167.618 372.347,164.792 									"/>
									<polygon style="fill:#374A3A;" points="368.171,164.785 365.599,161.836 363.018,164.777 364.339,164.779 364.335,167.605 
										366.845,167.609 366.849,164.783 									"/>
								</g>
							</g>
						</g>
					</g>
					<g>
						
							<rect x="341.674" y="139.739" transform="matrix(0.0017 -1 1 0.0017 123.1993 564.2153)" style="fill:#374A3A;" width="5" height="161.333"/>
						<polygon style="fill:none;stroke:#374A3A;stroke-miterlimit:10;" points="270.342,218.906 344.249,109.398 418.155,218.906 
													"/>
					</g>
				</g>
			</g>
			<g>
				<g>
					<g>
						<path style="fill:#0C2109;" d="M339.115,454.902l-1.893,7.383l-16.092,7.573v2.84h28.397c0,0,0.189-3.786-0.947-8.141
							c-1.136-4.354-1.515-9.655-1.515-9.655H339.115z"/>
						<path style="fill:#184347;" d="M349.478,470.237c0.097,1.504,0.049,2.461,0.049,2.461H321.13v-2.461H349.478z"/>
					</g>
					<g>
						<path style="fill:#0C2109;" d="M397.052,448.546l2.593,7.168l-9.035,15.319l1.599,2.347l23.468-15.99
							c0,0-1.975-3.236-5.366-6.195c-3.391-2.959-6.688-7.126-6.688-7.126L397.052,448.546z"/>
						<path style="fill:#184347;" d="M414.251,455.383c0.927,1.188,1.426,2.006,1.426,2.006l-23.468,15.99l-1.386-2.034
							L414.251,455.383z"/>
					</g>
					<g>
						<path style="fill:#184347;" d="M319.37,320.211c0,0,1.983,33.444,4.922,62.796c2.033,20.306,10.372,70.558,12.04,73.054
							c1.669,2.497,14.315,4.451,15.032,1.198c0.717-3.252-1.458-59.447-1.575-63.947c-0.118-4.501-0.31-17.072-0.31-17.072
							s4.647,15.763,6.682,19.234c2.035,3.471,37.274,53.319,39.569,53.739c2.294,0.419,12.937-1.805,14.066-7.388
							s-29.95-55.071-31.258-59.222c-1.308-4.151-16.848-59.019-16.848-59.019L319.37,320.211z"/>
						<g>
							<path style="fill:none;stroke:#3B7977;stroke-width:0.5;stroke-miterlimit:10;" d="M326.851,344.931l14.683,8.725
								c0,0,5.862,15.815,7.945,22.586"/>
							<path style="fill:none;stroke:#3B7977;stroke-width:0.5;stroke-miterlimit:10;" d="M344.068,360.586
								c0,0,1.177,26.533,1.41,29.004c0.232,2.471,3.809,69.134,3.809,69.134"/>
							<path style="fill:none;stroke:#3B7977;stroke-width:0.5;stroke-miterlimit:10;" d="M358.018,323.292
								c0,0,13.671,56.043,15.527,60.049c1.856,4.006,35.292,60.588,35.292,60.588"/>
						</g>
					</g>
				</g>
				<g>
					<g>
						<g>
							<path style="fill:#EA9633;" d="M360.071,366.82c0.309,0.62,0.057,1.372-0.563,1.681l-24.989,12.454
								c-0.619,0.309-1.372,0.057-1.681-0.563l-17.702-35.518c-0.309-0.619-0.057-1.372,0.563-1.681l24.989-12.454
								c0.619-0.309,1.372-0.057,1.681,0.563L360.071,366.82z"/>
							<g>
								
									<rect x="324.204" y="336.668" transform="matrix(0.895 -0.4461 0.4461 0.895 -122.2097 187.0609)" style="fill:#F8E4CF;" width="24.09" height="32.919"/>
								<g>
									
										<rect x="337.429" y="338.247" transform="matrix(0.895 -0.4461 0.4461 0.895 -115.8273 186.6441)" style="fill:#DEC5AB;" width="2.193" height="2.193"/>
									
										<rect x="321.523" y="343.852" transform="matrix(0.895 -0.4461 0.4461 0.895 -119.124 182.7113)" style="fill:#DEC5AB;" width="14.065" height="1.097"/>
									<path style="fill:none;stroke:#BD3E00;stroke-width:0.5;stroke-miterlimit:10;" d="M338.109,339.551l0.626,0.213
										c0,0,0.112-1.543,1.41-3.153"/>
								</g>
								<g>
									
										<rect x="339.618" y="342.64" transform="matrix(0.895 -0.4461 0.4461 0.895 -117.5571 188.082)" style="fill:#DEC5AB;" width="2.193" height="2.193"/>
									
										<rect x="323.712" y="348.245" transform="matrix(0.895 -0.4461 0.4461 0.895 -120.8536 184.1492)" style="fill:#DEC5AB;" width="14.065" height="1.097"/>
									<path style="fill:none;stroke:#BD3E00;stroke-width:0.5;stroke-miterlimit:10;" d="M340.299,343.944l0.626,0.213
										c0,0,0.112-1.543,1.41-3.153"/>
								</g>
								<g>
									
										<rect x="341.808" y="347.033" transform="matrix(0.895 -0.446 0.446 0.895 -119.2803 189.5011)" style="fill:#DEC5AB;" width="2.193" height="2.193"/>
									
										<rect x="325.902" y="352.638" transform="matrix(0.895 -0.4461 0.4461 0.895 -122.5854 185.5927)" style="fill:#DEC5AB;" width="14.065" height="1.097"/>
									<path style="fill:none;stroke:#BD3E00;stroke-width:0.5;stroke-miterlimit:10;" d="M342.488,348.337l0.626,0.213
										c0,0,0.111-1.543,1.41-3.153"/>
								</g>
								<g>
									
										<rect x="343.997" y="351.426" transform="matrix(0.895 -0.4461 0.4461 0.895 -121.0132 190.9484)" style="fill:#DEC5AB;" width="2.193" height="2.193"/>
									
										<rect x="328.091" y="357.031" transform="matrix(0.895 -0.4461 0.4461 0.895 -124.313 187.0249)" style="fill:#DEC5AB;" width="14.065" height="1.097"/>
									<path style="fill:none;stroke:#BD3E00;stroke-width:0.5;stroke-miterlimit:10;" d="M344.677,352.73l0.626,0.213
										c0,0,0.111-1.543,1.41-3.153"/>
								</g>
								<g>
									
										<rect x="346.186" y="355.819" transform="matrix(0.895 -0.446 0.446 0.895 -122.7396 192.3767)" style="fill:#DEC5AB;" width="2.193" height="2.193"/>
									
										<rect x="330.28" y="361.424" transform="matrix(0.895 -0.4461 0.4461 0.895 -126.0437 188.4655)" style="fill:#DEC5AB;" width="14.065" height="1.096"/>
									<path style="fill:none;stroke:#BD3E00;stroke-width:0.5;stroke-miterlimit:10;" d="M346.867,357.123l0.626,0.213
										c0,0,0.112-1.543,1.41-3.153"/>
								</g>
							</g>
							<g>
								<path style="fill:#CA791E;" d="M335.378,331.713l-5.971,2.976c-0.518-1.039-1.779-1.461-2.818-0.943
									c-1.038,0.517-1.461,1.779-0.943,2.818l-5.971,2.976c-0.62,0.309-0.871,1.061-0.563,1.681l0.668,1.34
									c0.309,0.62,1.061,0.872,1.681,0.563l15.703-7.826c0.619-0.309,0.871-1.061,0.563-1.68l-0.668-1.341
									C336.75,331.656,335.997,331.404,335.378,331.713z"/>
								<path style="fill:#602116;" d="M328.087,335.346c0.154,0.31,0.028,0.686-0.281,0.84c-0.31,0.154-0.686,0.028-0.84-0.281
									c-0.154-0.31-0.029-0.686,0.281-0.84C327.557,334.91,327.933,335.036,328.087,335.346z"/>
							</g>
						</g>
						<path style="fill:#D06F32;" d="M364.944,347.667c-1.256,1.223-1.734,1.833-4.023,3.189c-0.962,0.57-13.895,7.818-14.659,6.995
							c-0.764-0.823,5.137-3.984,5.049-4.551c-0.089-0.567-10.052,5.05-10.283,3.833c-0.231-1.217,7.552-5.943,6.945-6.535
							c-0.607-0.593-10.748,3.62-10.084,2.038c0.664-1.582,8.906-5.073,8.299-5.666c-0.607-0.593-9.32,1.678-8.534,0.65
							c0.787-1.028,7.049-3.928,8.244-4.487c1.195-0.56,9.92,0.565,11.684-0.386l7.416-10.147l7.326,4.317L364.944,347.667z"/>
					</g>
					<path style="fill:#D06F32;" d="M287.434,249.658c0,0-2.637-3.076-2.966-3.516c-0.329-0.439-0.329-5.054-1.318-6.921
						c-0.989-1.868-2.746-4.614-3.296-7.471c-0.549-2.856-0.879-5.808-2.087-5.595c-1.208,0.212-1.538,3.268-0.989,6.519
						c0.549,3.251-9.558-6.637-10.547-5.867c-0.989,0.769,6.372,7.58,6.372,8.349s-9.668-7.917-10.766-7.361
						c-1.099,0.557,7.8,9.009,7.471,9.558s-8.459-5.403-9.118-4.679c-0.659,0.724,8.13,7.206,7.91,7.865
						c-0.22,0.659-4.891-0.879-5.632,0c-0.74,0.879,11.743,6.729,14.311,7.031c2.568,0.302,5.273,5.383,5.273,5.383L287.434,249.658
						z"/>
					<g>
						<g>
							<path style="fill:#374A3A;" d="M342.403,260.91c0,0-9.929-0.613-14.981,0c-5.052,0.613-14.281,0.173-21.751-3.342
								c-7.471-3.516-18.457-14.078-19.995-13.85c-1.538,0.228-7.471,5.061-7.471,5.061s2.417,20.215,16.259,28.344
								c13.842,8.13,25.048,7.91,25.048,7.91s-1.318,35.126-0.44,36.459c0.879,1.333,21.985,13.857,43.731,1.333l5.047-23.95
								c0,0,4.395,14.472,1.318,22.617c-3.076,8.145-10.986,18.032-11.645,19.351c-0.659,1.318,8.997,7.91,12.738,5.713
								c0,0,18.902-11.425,20-29.882c1.099-18.457-8.789-43.725-15.6-49.218c-6.811-5.493-21.658-4.506-21.658-4.506L342.403,260.91
								z"/>
							<path style="fill:none;stroke:#0C2109;stroke-width:0.5;stroke-miterlimit:10;" d="M385.65,314.476
								c0,0-7.079-3.138-15.625,3.485"/>
							<path style="fill:none;stroke:#0C2109;stroke-width:0.5;stroke-miterlimit:10;" d="M306.569,257.962
								c0,0,2.617,8.167-2.876,15.861"/>
						</g>
						<g>
							<path style="fill:#0C2109;" d="M353.131,278.661c-1.538,0.879-15.38-1.318-16.479-3.735
								c-0.795-1.75,1.517-9.828,2.855-14.158c-2.6-0.105-6.479-0.205-9.638-0.052c-6.289,7.988-10.356,24.317-10.356,24.317
								s-1.318,35.126-0.44,36.459c0.879,1.333,21.985,13.857,43.731,1.333l5.047-23.95c1.574-15.388,1.756-29.096,1.764-34.056
								c-3.203-1.097-6.806-1.592-9.84-1.8C358.268,267.258,354.362,277.957,353.131,278.661z"/>
							<path style="fill:#374A3A;" d="M319.381,288.767c-0.159,4.635-0.418,12.785-0.541,19.798l46.238,3.472l2.774-13.162
								c0.15-1.468,0.288-2.921,0.413-4.353C351.226,291.332,329.988,289.529,319.381,288.767z"/>
							<path style="fill:none;stroke:#0C2109;stroke-width:0.5;stroke-miterlimit:10;" d="M336.491,273.824
								c0,0-6.781,27.425-8.034,52.275"/>
							<path style="fill:none;stroke:#0C2109;stroke-width:0.5;stroke-miterlimit:10;" d="M353.131,278.661
								c0,0-2.232,24.642-3.423,49.015"/>
						</g>
					</g>
				</g>
				<g>
					<path style="fill:#D06F32;" d="M340.092,222.984c0,0-4.486,6.933-6.253,12.778c-1.767,5.845-1.767,12.642,0,13.866
						c1.767,1.223,9.244,3.126,9.244,3.126l-0.68,8.156c0,0,0,8.292,10.603,2.039c0,0-0.272-5.574,2.583-13.322
						c2.855-7.748,7.477-15.225,7.205-17.264C362.522,230.324,349.2,219.035,340.092,222.984z"/>
					<path style="fill:#0C2109;" d="M354.078,254.584c0,0-1.616-1.286-1.479-2.102c0.136-0.816,1.479-5.03-0.008-6.933
						c0,0,2.999,0.272,4.63-2.719c1.631-2.991,1.224-7.748-4.078-6.117c0,0-3.534-1.753-1.903-7.742c0,0-2.991-2.318-10.195-3.677
						c-7.205-1.359-7.884-6.661-7.341-8.02c0.544-1.359,2.855,1.087,5.166,0.952c0,0-2.583-4.35,0.136-6.933
						c2.719-2.583,3.806,1.903,7.477,4.894c3.67,2.991,10.739,6.926,15.089,8.836s4.894,4.321,3.806,7.53
						c-1.087,3.209-8.428,19.113-8.972,20.609C355.861,254.657,354.732,255.184,354.078,254.584z"/>
				</g>
			</g>
			<g>
				<g>
					<g>
						<rect x="46.473" y="263.785" style="fill:#CA791E;" width="134.82" height="181.022"/>
						<g>
							
								<line style="fill:none;stroke:#EA9633;stroke-width:0.5;stroke-miterlimit:10;" x1="113.883" y1="263.785" x2="113.883" y2="444.807"/>
							<g>
								
									<line style="fill:none;stroke:#EA9633;stroke-width:0.5;stroke-miterlimit:10;" x1="181.293" y1="323.168" x2="46.473" y2="323.168"/>
								
									<line style="fill:none;stroke:#EA9633;stroke-width:0.5;stroke-miterlimit:10;" x1="181.293" y1="385.424" x2="46.473" y2="385.424"/>
							</g>
						</g>
						<g>
							<g>
								<rect x="138.978" y="307.541" style="fill:#374A3A;" width="6.668" height="8.097"/>
								<rect x="149.934" y="307.541" style="fill:#F8E4CF;" width="6.668" height="8.097"/>
							</g>
							<g>
								<rect x="72.925" y="307.541" style="fill:#374A3A;" width="6.668" height="8.097"/>
								<rect x="83.88" y="307.541" style="fill:#F8E4CF;" width="6.668" height="8.097"/>
							</g>
							<g>
								<rect x="138.978" y="370.72" style="fill:#374A3A;" width="6.668" height="8.097"/>
								<rect x="149.934" y="370.72" style="fill:#F8E4CF;" width="6.668" height="8.097"/>
							</g>
							<g>
								<rect x="72.925" y="370.72" style="fill:#374A3A;" width="6.668" height="8.097"/>
								<rect x="83.88" y="370.72" style="fill:#F8E4CF;" width="6.668" height="8.097"/>
							</g>
							<g>
								<rect x="138.978" y="433.9" style="fill:#374A3A;" width="6.668" height="8.097"/>
								<rect x="149.934" y="433.9" style="fill:#F8E4CF;" width="6.668" height="8.097"/>
							</g>
							<g>
								<rect x="72.925" y="433.9" style="fill:#374A3A;" width="6.668" height="8.097"/>
								<rect x="83.88" y="433.9" style="fill:#F8E4CF;" width="6.668" height="8.097"/>
							</g>
						</g>
						<rect x="97.766" y="263.785" style="fill:#374A3A;" width="32.236" height="37.943"/>
					</g>
					<g>
						<g>
							<rect x="130.489" y="359.274" style="fill:#D35422;" width="138.316" height="85.533"/>
							<rect x="130.489" y="368.896" style="fill:#BD3E00;" width="138.316" height="66.289"/>
							<g>
								
									<line style="fill:none;stroke:#D35422;stroke-width:2;stroke-miterlimit:10;" x1="136.503" y1="368.896" x2="136.503" y2="435.185"/>
								
									<line style="fill:none;stroke:#D35422;stroke-width:2;stroke-miterlimit:10;" x1="144.922" y1="368.896" x2="144.922" y2="435.185"/>
								
									<line style="fill:none;stroke:#D35422;stroke-width:2;stroke-miterlimit:10;" x1="153.341" y1="368.896" x2="153.341" y2="435.185"/>
								
									<line style="fill:none;stroke:#D35422;stroke-width:2;stroke-miterlimit:10;" x1="161.76" y1="368.896" x2="161.76" y2="435.185"/>
								
									<line style="fill:none;stroke:#D35422;stroke-width:2;stroke-miterlimit:10;" x1="170.179" y1="368.896" x2="170.179" y2="435.185"/>
								
									<line style="fill:none;stroke:#D35422;stroke-width:2;stroke-miterlimit:10;" x1="178.599" y1="368.896" x2="178.599" y2="435.185"/>
								
									<line style="fill:none;stroke:#D35422;stroke-width:2;stroke-miterlimit:10;" x1="187.018" y1="368.896" x2="187.018" y2="435.185"/>
								
									<line style="fill:none;stroke:#D35422;stroke-width:2;stroke-miterlimit:10;" x1="195.437" y1="368.896" x2="195.437" y2="435.185"/>
								
									<line style="fill:none;stroke:#D35422;stroke-width:2;stroke-miterlimit:10;" x1="203.856" y1="368.896" x2="203.856" y2="435.185"/>
								
									<line style="fill:none;stroke:#D35422;stroke-width:2;stroke-miterlimit:10;" x1="212.275" y1="368.896" x2="212.275" y2="435.185"/>
								
									<line style="fill:none;stroke:#D35422;stroke-width:2;stroke-miterlimit:10;" x1="220.695" y1="368.896" x2="220.695" y2="435.185"/>
								
									<line style="fill:none;stroke:#D35422;stroke-width:2;stroke-miterlimit:10;" x1="229.114" y1="368.896" x2="229.114" y2="435.185"/>
								
									<line style="fill:none;stroke:#D35422;stroke-width:2;stroke-miterlimit:10;" x1="237.533" y1="368.896" x2="237.533" y2="435.185"/>
								
									<line style="fill:none;stroke:#D35422;stroke-width:2;stroke-miterlimit:10;" x1="245.952" y1="368.896" x2="245.952" y2="435.185"/>
								
									<line style="fill:none;stroke:#D35422;stroke-width:2;stroke-miterlimit:10;" x1="254.371" y1="368.896" x2="254.371" y2="435.185"/>
								
									<line style="fill:none;stroke:#D35422;stroke-width:2;stroke-miterlimit:10;" x1="262.791" y1="368.896" x2="262.791" y2="435.185"/>
							</g>
						</g>
						<g>
							
								<text transform="matrix(1 0 0 1 140.1848 412.0052)" style="fill:#F8E4CF; font-family:'Poppins-Black'; font-size:29.415px;">EXPORT</text>
						</g>
					</g>
					<g>
						<rect x="147.132" y="286.727" style="fill:#EA9633;" width="96.61" height="72.884"/>
						<rect x="214.745" y="286.727" style="fill:#CA791E;" width="28.997" height="72.884"/>
						<rect x="173.04" y="286.727" style="fill:#374A3A;" width="14.933" height="16.692"/>
						<rect x="224.871" y="286.727" style="fill:#374A3A;" width="8.746" height="16.692"/>
						<g>
							<polygon style="fill:#374A3A;" points="190.404,347.339 185.615,341.866 180.827,347.339 183.283,347.339 183.283,352.592 
								187.948,352.592 187.948,347.339 							"/>
							<polygon style="fill:#374A3A;" points="180.186,347.339 175.397,341.866 170.609,347.339 173.064,347.339 173.064,352.592 
								177.73,352.592 177.73,347.339 							"/>
						</g>
					</g>
				</g>
				<rect x="30" y="441.997" style="fill:#374A3A;" width="255.278" height="11.186"/>
			</g>
		</g>
		<g>
			<g>
				<line style="fill:none;stroke:#DEC5AB;stroke-miterlimit:10;" x1="51.935" y1="151.857" x2="51.935" y2="159.857"/>
				<line style="fill:none;stroke:#DEC5AB;stroke-miterlimit:10;" x1="55.935" y1="155.857" x2="47.935" y2="155.857"/>
			</g>
			<g>
				<line style="fill:none;stroke:#DEC5AB;stroke-miterlimit:10;" x1="315.005" y1="404.807" x2="315.005" y2="412.807"/>
				<line style="fill:none;stroke:#DEC5AB;stroke-miterlimit:10;" x1="319.005" y1="408.807" x2="311.005" y2="408.807"/>
			</g>
			<g>
				<line style="fill:none;stroke:#DEC5AB;stroke-miterlimit:10;" x1="427.301" y1="154.876" x2="427.301" y2="162.876"/>
				<line style="fill:none;stroke:#DEC5AB;stroke-miterlimit:10;" x1="431.301" y1="158.876" x2="423.301" y2="158.876"/>
			</g>
			<g>
				<line style="fill:none;stroke:#DEC5AB;stroke-miterlimit:10;" x1="430.405" y1="412.807" x2="430.405" y2="420.807"/>
				<line style="fill:none;stroke:#DEC5AB;stroke-miterlimit:10;" x1="434.405" y1="416.807" x2="426.405" y2="416.807"/>
			</g>
			<circle style="fill:none;stroke:#DEC5AB;stroke-miterlimit:10;" cx="43.182" cy="193.288" r="3"/>
			<circle style="fill:none;stroke:#DEC5AB;stroke-miterlimit:10;" cx="451.956" cy="174.462" r="3"/>
			<circle style="fill:none;stroke:#DEC5AB;stroke-miterlimit:10;" cx="284.999" cy="419.807" r="3"/>
			<circle style="fill:none;stroke:#DEC5AB;stroke-miterlimit:10;" cx="458.333" cy="356" r="3"/>
		</g>
	</g>
</g>
</svg>
